<svg xmlns="http://www.w3.org/2000/svg" xmlns:xlink="http://www.w3.org/1999/xlink" width="1600" height="590" viewBox="0 0 1600 590" font-family="Helvetica Neue,Helvetica,Arial,sans-serif" role="img" aria-label="On-premises MCP architecture: an agent on AgentBase uses the platform LLM and Memory and calls a Private MCP Gateway, whose connector takes its API key from Access Control and reaches the on-premises MCP server through the customer VPC and GreenNode VPN Site-to-Site"><rect width="1600" height="590" fill="#FFFFFF"/><defs><marker id="a-ink" viewBox="0 0 10 10" refX="9" refY="5" markerWidth="7" markerHeight="7" orient="auto-start-reverse"><path d="M0 0L10 5L0 10z" fill="#232F3E"/></marker><marker id="a-org" viewBox="0 0 10 10" refX="9" refY="5" markerWidth="7" markerHeight="7" orient="auto-start-reverse"><path d="M0 0L10 5L0 10z" fill="#FF4C00"/></marker><marker id="a-red" viewBox="0 0 10 10" refX="9" refY="5" markerWidth="7" markerHeight="7" orient="auto-start-reverse"><path d="M0 0L10 5L0 10z" fill="#DD344C"/></marker><symbol id="gn-ai" viewBox="0 0 20 20" fill="none">
  <path fill="#358DD5" d="M16.5,6.3c-0.5-1.2-1.6-2-2.9-2c-0.3-1.7-1.9-3-3.7-3c-1.8,0-3.3,1.3-3.7,3C5,4.1,3.7,5,3.3,6.3C2.1,6.6,1.2,7.7,1.2,9c0,1.5,1.2,2.8,2.8,2.8h12c1.5,0,2.8-1.2,2.8-2.8C18.8,7.7,17.8,6.6,16.5,6.3z M16,10.2H4c-0.7,0-1.2-0.6-1.2-1.2S3.3,7.7,4,7.7c0.3,0,0.7,0.1,0.9,0.4L6,9.2c0.3,0.3,0.8,0.3,1.1,0c0.3-0.3,0.3-0.8,0-1.1L5.9,7c-0.3-0.3-0.7-0.5-1-0.6C5.2,5.8,6,5.6,6.6,5.9c0.2,0.1,0.5,0.1,0.8,0c0.2-0.2,0.4-0.4,0.4-0.7c0-0.1,0-0.1,0-0.2c0-1.2,1-2.2,2.2-2.2s2.2,1,2.2,2.3c0,0.2,0.1,0.4,0.3,0.6c0.2,0.1,0.4,0.2,0.6,0.2c0.7-0.1,1.4,0.1,1.8,0.7c-0.3,0.1-0.6,0.3-0.8,0.5l-0.9,0.9h-0.7c-0.4,0-0.8,0.3-0.8,0.8c0,0.4,0.3,0.8,0.8,0.8h1c0.2,0,0.4-0.1,0.5-0.2l1.1-1.1c0.2-0.2,0.5-0.3,0.8-0.4c0,0,0,0,0,0c0.7,0,1.3,0.6,1.3,1.2S16.7,10.2,16,10.2z"></path>
  <path fill="#358DD5" d="M11.5,6.5L10.1,8l0.7,0.7V11c0,0.4-0.3,0.8-0.8,0.8S9.2,11.4,9.2,11V9.3L7.5,7.5c-0.3-0.3-0.3-0.8,0-1.1c0.3-0.3,0.8-0.3,1.1,0L9,6.9l1.5-1.5c0.3-0.3,0.8-0.3,1.1,0C11.8,5.8,11.8,6.2,11.5,6.5z"></path>
  <path fill="#358DD5" d="M10.8,11v3.4c-0.2-0.1-0.5-0.1-0.8-0.1s-0.5,0-0.8,0.1V11c0-0.4,0.3-0.8,0.8-0.8S10.8,10.6,10.8,11z"></path>
  <path fill="#358DD5" d="M14.5,13.5c-0.5,0.2-0.8,0.6-1.1,1.1l-1-1c-0.1-0.1-0.2-0.3-0.2-0.5v-2c0-0.4,0.3-0.8,0.8-0.8s0.8,0.3,0.8,0.8v1.7L14.5,13.5z"></path>
  <path fill="#358DD5" d="M7.8,11v2c0,0.2-0.1,0.4-0.2,0.5l-1,1c-0.2-0.5-0.6-0.8-1.1-1.1l0.8-0.8V11c0-0.4,0.3-0.8,0.8-0.8S7.8,10.6,7.8,11z"></path>
  <path fill="#FF5F4E" d="M10.8,14.4c-0.2-0.1-0.5-0.1-0.8-0.1s-0.5,0-0.8,0.1c-0.9,0.3-1.5,1.1-1.5,2.1c0,1.2,1,2.2,2.2,2.2s2.2-1,2.2-2.2C12.2,15.5,11.6,14.7,10.8,14.4z M10,17.2c-0.4,0-0.8-0.3-0.8-0.8c0-0.4,0.3-0.8,0.8-0.8s0.8,0.3,0.8,0.8C10.8,16.9,10.4,17.2,10,17.2z"></path>
  <path fill="#FF5F4E" d="M6.5,14.5c-0.2-0.5-0.6-0.8-1.1-1.1c-0.3-0.1-0.6-0.2-1-0.2c-1.2,0-2.2,1-2.2,2.2s1,2.2,2.2,2.2s2.2-1,2.2-2.2C6.8,15.1,6.7,14.8,6.5,14.5z M4.5,16.2c-0.4,0-0.8-0.3-0.8-0.8c0-0.4,0.3-0.8,0.8-0.8s0.8,0.3,0.8,0.8C5.2,15.9,4.9,16.2,4.5,16.2z"></path>
  <path fill="#FF5F4E" d="M15.5,13.2c-0.3,0-0.7,0.1-1,0.2c-0.5,0.2-0.8,0.6-1.1,1.1c-0.1,0.3-0.2,0.6-0.2,1c0,1.2,1,2.2,2.2,2.2s2.2-1,2.2-2.2S16.7,13.2,15.5,13.2z M15.5,16.2c-0.4,0-0.8-0.3-0.8-0.8c0-0.4,0.3-0.8,0.8-0.8s0.8,0.3,0.8,0.8C16.2,15.9,15.9,16.2,15.5,16.2z"></path>
</symbol><symbol id="gn-vnet" viewBox="0 0 20 20" fill="none">
  <path fill="#FF4C00" d="M17.5,7.7l-2.2,2.2c-0.2,0.2-0.5,0.2-0.7,0l-2.2-2.2c-0.3-0.3-0.1-0.8,0.4-0.8h1.4V6c0-0.1-0.1-0.2-0.2-0.2H9.4c0-0.2,0.1-0.5,0.1-0.8s0-0.5-0.1-0.8H14c1,0,1.8,0.8,1.8,1.8v0.9h1.4C17.6,6.9,17.8,7.4,17.5,7.7z"></path>
  <path fill="#00B795" d="M9.4,4.2C9.1,2.1,7.2,0.5,5,0.5c-2.5,0-4.5,2-4.5,4.5s2,4.5,4.5,4.5c2.2,0,4.1-1.6,4.4-3.8c0-0.2,0.1-0.5,0.1-0.8S9.5,4.5,9.4,4.2z M5,8C3.3,8,2,6.7,2,5s1.3-3,3-3s3,1.3,3,3S6.7,8,5,8z"></path>
  <path fill="#FF4C00" fill-rule="evenodd" clip-rule="evenodd" d="M10.5,15c0,0.3,0,0.5,0.1,0.8H6c-1,0-1.8-0.8-1.8-1.8v-0.9H2.8c-0.4,0-0.7-0.5-0.4-0.9l2.2-2.2c0.2-0.2,0.5-0.2,0.7,0l2.2,2.2c0.3,0.3,0.1,0.9-0.4,0.9H5.8V14c0,0.1,0.1,0.2,0.2,0.2h4.6C10.5,14.5,10.5,14.7,10.5,15z"></path>
  <path fill="#00B795" d="M15,10.5c-2.2,0-4.1,1.6-4.4,3.8c0,0.2-0.1,0.5-0.1,0.8s0,0.5,0.1,0.8c0.3,2.1,2.2,3.8,4.4,3.8c2.5,0,4.5-2,4.5-4.5S17.5,10.5,15,10.5z M15,18c-1.7,0-3-1.3-3-3s1.3-3,3-3s3,1.3,3,3S16.7,18,15,18z"></path>
</symbol><symbol id="mcp" viewBox="60 20 1800 1800" fill="none">
  <g stroke="#000000" stroke-width="128" stroke-linecap="round" stroke-linejoin="round">
    <path d="M193 910L920 183A258 258 0 0 1 1286 548L735 1097"/>
    <path d="M1103 365L565 903A258 258 0 0 0 930 1268L1467 729"/>
    <path d="M1286 548A258 258 0 0 1 1650 912L1015 1547Q980 1582 1015 1617L1130 1733"/>
  </g>
</symbol><symbol id="agent-runtime" viewBox="0 0 16 16" fill="none">
  <path fill="#FF4C00" d="M10,0.7H7.5c-3.2,0-5.8,2.6-5.8,5.8v4.7c0,0.4-0.1,0.8-0.3,1.2l-1.1,1.8c-0.1,0.2-0.1,0.5,0,0.8c0.1,0.2,0.4,0.4,0.7,0.4h9c3.2,0,5.8-2.6,5.8-5.8v-3C15.8,3.3,13.2,0.7,10,0.7z M14.2,9.5c0,2.3-1.9,4.2-4.2,4.2H2.3l0.4-0.6c0.3-0.6,0.5-1.2,0.5-1.9V6.5c0-2.3,1.9-4.2,4.2-4.2H10c2.3,0,4.2,1.9,4.2,4.2V9.5z"/>
  <path fill="#00B795" d="M11.2,8.7l-0.4,0.1C9.3,9,8.2,10.1,7.9,11.6L7.8,12l-0.1-0.4C7.5,10.1,6.3,9,4.9,8.7L4.5,8.7l0.4-0.1c1.5-0.3,2.6-1.4,2.9-2.9l0.1-0.4l0.1,0.4c0.3,1.5,1.4,2.6,2.9,2.9L11.2,8.7z"/>
  <path fill="#00B795" d="M12.5,5.6c-0.8,0.1-1.4,0.8-1.6,1.5c-0.1-0.8-0.8-1.4-1.5-1.5c0.8-0.1,1.4-0.8,1.5-1.6C11.1,4.8,11.7,5.4,12.5,5.6z"/>
</symbol><symbol id="policy" viewBox="0 0 20 20" fill="none">
  <!-- Policy: tài liệu rule (xanh) + khiên check (cam) — cùng style 2 màu với bộ icon GreenNode -->
  <path d="M11.5 16.25H4.25c-0.83 0-1.5-0.67-1.5-1.5V3.25c0-0.83 0.67-1.5 1.5-1.5h6.6l3.4 3.4v2.6" stroke="#00B795" stroke-width="1.5" stroke-linecap="round" stroke-linejoin="round"/>
  <path d="M10.75 1.9v2.85c0 0.41 0.34 0.75 0.75 0.75h2.75" stroke="#00B795" stroke-width="1.5" stroke-linecap="round" stroke-linejoin="round"/>
  <path d="M5.5 7.25h4.5M5.5 10.25h3.25M5.5 13.25h2.5" stroke="#00B795" stroke-width="1.5" stroke-linecap="round"/>
  <path d="M15 9.6l3.6 1.35v2.75c0 2.25-1.6 3.6-3.6 4.3c-2-0.7-3.6-2.05-3.6-4.3v-2.75z" fill="#FFFFFF" stroke="#FF4C00" stroke-width="1.5" stroke-linejoin="round"/>
  <path d="M13.5 14l1.05 1.05l2-2.1" stroke="#FF4C00" stroke-width="1.5" stroke-linecap="round" stroke-linejoin="round"/>
</symbol><symbol id="mcp-gateway" viewBox="0 0 16 16" fill="none">
  <path fill="#5B5AA8" d="M11,0.2H5C2.9,0.2,1.2,1.9,1.2,4v11c0,0.4,0.3,0.8,0.8,0.8h12c0.4,0,0.8-0.3,0.8-0.8V4C14.8,1.9,13.1,0.2,11,0.2z M13.2,14.2H2.8V4c0-1.2,1-2.2,2.2-2.2h6c1.2,0,2.2,1,2.2,2.2V14.2z"/>
  <path fill="#FF4C00" d="M11.5,9.2l-0.4,0.1c-1.7,0.3-3,1.6-3.3,3.3L7.8,13l-0.1-0.4c-0.3-1.7-1.6-3-3.3-3.3L4,9.2l0.4-0.1c1.7-0.3,3-1.6,3.3-3.3l0.1-0.4l0.1,0.4c0.3,1.7,1.6,3,3.3,3.3L11.5,9.2z"/>
  <path fill="#FF4C00" d="M12,5.2c-0.9,0.2-1.6,0.9-1.8,1.8c-0.2-0.9-0.9-1.6-1.8-1.8c0.9-0.2,1.6-0.9,1.8-1.8C10.4,4.4,11.1,5.1,12,5.2z"/>
</symbol><symbol id="inbound-auth" viewBox="0 0 20 20" fill="none">
  <!-- Inbound Auth: cửa sổ (xanh) + mũi tên đi vào + mắt xích xác thực (cam) — style 2 màu GreenNode -->
  <path d="M16.25 10.5V4.25c0-0.83-0.67-1.5-1.5-1.5H3.25c-0.83 0-1.5 0.67-1.5 1.5v10.5c0 0.83 0.67 1.5 1.5 1.5h7.25" stroke="#00B795" stroke-width="1.5" stroke-linecap="round" stroke-linejoin="round"/>
  <path d="M1.75 6.25h14.5" stroke="#00B795" stroke-width="1.5"/>
  <circle cx="11.6" cy="4.5" r="0.75" fill="#00B795"/><circle cx="13.3" cy="4.5" r="0.75" fill="#00B795"/><circle cx="15" cy="4.5" r="0.75" fill="#00B795"/>
  <path d="M4.5 11h5.25M7.75 8.75L10 11l-2.25 2.25" stroke="#FF4C00" stroke-width="1.5" stroke-linecap="round" stroke-linejoin="round"/>
  <g stroke="#FF4C00" stroke-width="1.5" stroke-linecap="round">
    <path d="M14.1 13.1l1.3-1.3a1.9 1.9 0 0 1 2.7 2.7l-1.3 1.3"/>
    <path d="M16.1 17.1l-1.3 1.3a1.9 1.9 0 0 1 -2.7-2.7l1.3-1.3"/>
    <path d="M14.2 16.3l2.1-2.1"/>
  </g>
</symbol><symbol id="access-control" viewBox="0 0 16 16" fill="none">
  <!-- Access Control (GreenNode console icon): key (green) + check (orange) -->
  <path fill="#00B795" d="M9.5,0.3C6,0.3,3.3,3,3.3,6.5c0,0.7,0.1,1.4,0.3,2.1l-3.1,3.1c-0.1,0.1-0.2,0.3-0.2,0.5V15c0,0.4,0.3,0.8,0.8,0.8h2.8c0.4,0,0.8-0.3,0.8-0.8v-1.6h1.6c0.4,0,0.8-0.3,0.8-0.8v-0.5c0.8,0.4,1.7,0.6,2.7,0.6c3.5,0,6.3-2.8,6.3-6.3S13,0.3,9.5,0.3z M9.5,11.3c-1.1,0-2.1-0.4-3-1C6.3,10,6,10,5.8,10.1c-0.3,0.1-0.4,0.4-0.4,0.7v1.1H3.8c-0.4,0-0.8,0.3-0.8,0.8v1.6H1.8v-1.7L5,9.3c0.2-0.2,0.3-0.6,0.1-0.8C4.9,7.8,4.8,7.2,4.8,6.5c0-2.6,2.1-4.8,4.8-4.8s4.8,2.1,4.8,4.8S12.1,11.3,9.5,11.3z"/>
  <path fill="#FF4C00" d="M12.5,5.5L9,9C8.7,9.3,8.3,9.3,8,9L6,7C5.7,6.7,5.7,6.3,6,6C6.3,5.7,6.7,5.7,7,6l1.5,1.5l3-3c0.3-0.3,0.8-0.3,1.1,0C12.8,4.8,12.8,5.2,12.5,5.5z"/>
</symbol><symbol id="memory" viewBox="0 0 16 16" fill="none">
  <!-- Memory (GreenNode console icon): layered store (green) + bolt (orange) -->
  <path fill="#00B795" d="M15,2.6L9.1,0.5c-0.7-0.3-1.5-0.3-2.2,0L1,2.6c-0.4,0.2-0.7,0.6-0.7,1v8.8c0,0.5,0.3,0.9,0.7,1l5.9,2.2c0.4,0.1,0.7,0.2,1.1,0.2s0.8-0.1,1.1-0.2l5.9-2.2c0.4-0.2,0.7-0.6,0.7-1V3.6C15.8,3.2,15.5,2.8,15,2.6z M14.2,7.7l-3,1.1c-0.4,0.2-0.6,0.6-0.4,1c0.1,0.4,0.6,0.6,1,0.4l2.5-0.9v2.8l-5.7,2.1c-0.4,0.1-0.8,0.1-1.2,0l-5.7-2.1V9.3l1.6,0.6c0.4,0.1,0.8-0.1,1-0.4c0.1-0.4-0.1-0.8-0.5-1L1.8,7.7V4.9L4.7,6c0.4,0.1,0.8-0.1,1-0.5s-0.1-0.8-0.5-1l-2.6-1l4.8-1.8c0.4-0.1,0.8-0.1,1.2,0l4.8,1.8L13,3.8c-0.4,0.1-0.6,0.6-0.4,1c0.1,0.4,0.6,0.6,1,0.5l0.7-0.3V7.7z"/>
  <path fill="#FF4C00" d="M11.2,4.9L9.5,7h1.4c0.2,0,0.3,0.3,0.2,0.4L6,12.5L7.5,8H5.9C5.7,8,5.6,7.8,5.7,7.6l1.7-3c0-0.1,0.1-0.1,0.2-0.1H11C11.2,4.5,11.3,4.7,11.2,4.9z"/>
</symbol></defs><rect x="20" y="20" width="710" height="530" fill="none" stroke="#0DB14B" stroke-width="1.5"/><rect x="20" y="20" width="26" height="26" fill="#FFFFFF" stroke="#0DB14B" stroke-width="1.5"/><circle cx="33" cy="33" r="7" fill="none" stroke="#0DB14B" stroke-width="3.2"/><circle cx="33" cy="33" r="2.6" fill="#333333"/><text x="54" y="38" font-size="12.5" font-weight="700" fill="#0A8F3C" text-anchor="start">AgentBase Platform — managed by GreenNode</text><rect x="40" y="56" width="670" height="130" fill="#FAFBFC" stroke="#7D8998" stroke-width="1.5" stroke-dasharray="4 3"/><text x="48" y="74" font-size="12.5" font-weight="700" fill="#545B64" text-anchor="start">Shared services · platform API</text><rect x="75.75" y="83.75" width="56.5" height="56.5" rx="11" fill="#FFFFFF" stroke="#CFD6DD" stroke-width="1.5"/><use href="#gn-ai" xlink:href="#gn-ai" x="82" y="90" width="44" height="44"/><text x="104" y="152" font-size="12" font-weight="700" fill="#232F3E" text-anchor="middle">LLM — AI Platform</text><text x="104" y="167" font-size="10.5" font-weight="400" fill="#545B64" text-anchor="middle">OpenAI-compatible API</text><rect x="285.75" y="83.75" width="56.5" height="56.5" rx="11" fill="#FFFFFF" stroke="#CFD6DD" stroke-width="1.5"/><use href="#memory" xlink:href="#memory" x="292" y="90" width="44" height="44"/><text x="314" y="152" font-size="12" font-weight="700" fill="#232F3E" text-anchor="middle">Memory</text><text x="314" y="167" font-size="10.5" font-weight="400" fill="#545B64" text-anchor="middle">short-term + long-term</text><rect x="495.75" y="83.75" width="56.5" height="56.5" rx="11" fill="#FFFFFF" stroke="#CFD6DD" stroke-width="1.5"/><use href="#access-control" xlink:href="#access-control" x="502" y="90" width="44" height="44"/><text x="524" y="152" font-size="12" font-weight="700" fill="#232F3E" text-anchor="middle">Access Control</text><text x="524" y="167" font-size="10.5" font-weight="400" fill="#545B64" text-anchor="middle">identity · credentials</text><rect x="36" y="230" width="678" height="300" fill="none" stroke="#0DB14B" stroke-width="1.5" stroke-dasharray="7 4"/><rect x="36" y="230" width="26" height="26" fill="#FFFFFF" stroke="#0DB14B" stroke-width="1.5"/><use href="#gn-vnet" xlink:href="#gn-vnet" x="40" y="234" width="18" height="18"/><text x="70" y="248" font-size="12.5" font-weight="700" fill="#0A8F3C" text-anchor="start">AgentBase VPC · 172.30.0.0/16</text><rect x="55.75" y="365.75" width="56.5" height="56.5" rx="11" fill="#FFFFFF" stroke="#CFD6DD" stroke-width="1.5"/><use href="#agent-runtime" xlink:href="#agent-runtime" x="62" y="372" width="44" height="44"/><text x="84" y="434" font-size="12" font-weight="700" fill="#232F3E" text-anchor="middle">Agent</text><text x="84" y="449" font-size="10.5" font-weight="400" fill="#545B64" text-anchor="middle">Agent Runtime</text><rect x="220" y="290" width="450" height="186" fill="#F8F7FC" stroke="#5B5AA8" stroke-width="1.5"/><rect x="220" y="290" width="26" height="26" fill="#FFFFFF" stroke="#5B5AA8" stroke-width="1.5"/><use href="#mcp-gateway" xlink:href="#mcp-gateway" x="224" y="294" width="18" height="18"/><text x="254" y="308" font-size="12.5" font-weight="700" fill="#5B5AA8" text-anchor="start">MCP Gateway · Private</text><text x="660" y="308" font-size="11" font-weight="700" fill="#232F3E" text-anchor="end">MCP Connectors</text><rect x="232" y="328" width="40" height="40" rx="8" fill="#FFFFFF" stroke="#CFD6DD" stroke-width="1.2"/><use href="#inbound-auth" xlink:href="#inbound-auth" x="235" y="331" width="34" height="34"/><text x="278" y="353" font-size="11.5" font-weight="700" fill="#232F3E" text-anchor="start">Inbound Auth</text><rect x="232" y="392" width="40" height="40" rx="8" fill="#FFFFFF" stroke="#CFD6DD" stroke-width="1.2"/><use href="#policy" xlink:href="#policy" x="235" y="395" width="34" height="34"/><text x="278" y="417" font-size="11.5" font-weight="700" fill="#232F3E" text-anchor="start">Policy Group</text><polyline points="252,368 252,392" fill="none" stroke="#232F3E" stroke-width="1.6" stroke-linejoin="round" marker-end="url(#a-ink)"/><text x="232" y="468" font-size="10.5" font-weight="600" fill="#5B5AA8" text-anchor="start">Network: Private · Route CIDRs = on-prem</text><rect x="390" y="316" width="270" height="56" rx="4" fill="#FFFFFF" stroke="#9AA5B1" stroke-width="1.2"/><use href="#mcp" xlink:href="#mcp" x="399" y="326" width="36" height="36"/><text x="442" y="334" font-size="12" font-weight="700" fill="#232F3E" font-family="Menlo,Consolas,monospace">erp</text><text x="442" y="349" font-size="10.5" font-weight="400" fill="#545B64" text-anchor="start">URL: https://&lt;onprem-host&gt;:8443/mcp</text><text x="442" y="363" font-size="10.5" font-weight="400" fill="#545B64" text-anchor="start">Outbound: API Key · X-Api-Key</text><polyline points="252,432 252,446 375,446" fill="none" stroke="#232F3E" stroke-width="1.6"/><polyline points="375,344 375,446" fill="none" stroke="#232F3E" stroke-width="1.6"/><polyline points="375,344 390,344" fill="none" stroke="#232F3E" stroke-width="1.6" stroke-linejoin="round" marker-end="url(#a-ink)"/><rect x="760" y="20" width="400" height="530" fill="none" stroke="#5B5AA8" stroke-width="1.5"/><rect x="760" y="20" width="26" height="26" fill="#FFFFFF" stroke="#5B5AA8" stroke-width="1.5"/><use href="#gn-vnet" xlink:href="#gn-vnet" x="764" y="24" width="18" height="18"/><text x="794" y="38" font-size="12.5" font-weight="700" fill="#5B5AA8" text-anchor="start">Customer VPC on GreenNode · 10.20.0.0/16</text><rect x="905.75" y="315.75" width="56.5" height="56.5" rx="11" fill="#FFFFFF" stroke="#CFD6DD" stroke-width="1.5"/><use href="#gn-vnet" xlink:href="#gn-vnet" x="912" y="322" width="44" height="44"/><text x="934" y="384" font-size="12" font-weight="700" fill="#232F3E" text-anchor="middle">VPN Site-to-Site</text><text x="934" y="399" font-size="10.5" font-weight="400" fill="#545B64" text-anchor="middle">GreenNode vNetwork</text><rect x="780" y="70" width="360" height="95" rx="4" fill="#FFFFFF" stroke="#7D8998" stroke-width="1"/><rect x="780" y="70" width="360" height="24" rx="4" fill="#F2F3F3"/><rect x="780" y="90" width="360" height="4" fill="#F2F3F3"/><text x="790" y="86" font-size="11" font-weight="700" fill="#232F3E" text-anchor="start">Route table (example)</text><text x="790" y="112" font-size="10.5" fill="#232F3E" font-family="Menlo,Consolas,monospace">10.20.0.0/16</text><text x="1130" y="112" font-size="10.5" font-weight="600" fill="#545B64" text-anchor="end">local</text><text x="790" y="129" font-size="10.5" fill="#232F3E" font-family="Menlo,Consolas,monospace">172.30.0.0/16</text><text x="1130" y="129" font-size="10.5" font-weight="600" fill="#545B64" text-anchor="end">→ AgentBase (private)</text><text x="790" y="146" font-size="10.5" fill="#232F3E" font-family="Menlo,Consolas,monospace">192.168.0.0/16</text><text x="1130" y="146" font-size="10.5" font-weight="600" fill="#545B64" text-anchor="end">→ VPN Site-to-Site</text><rect x="1190" y="20" width="390" height="530" fill="none" stroke="#7D8998" stroke-width="1.5"/><rect x="1190" y="20" width="26" height="26" fill="#7D8998"/><g transform="translate(1190 20) scale(0.5417)"><path d="M14 36V13h13v23M27 20h8v16M11 36h27" fill="none" stroke="#FFFFFF" stroke-width="2" stroke-linecap="round" stroke-linejoin="round"/><path d="M18 18h5M18 23h5M18 28h5" fill="none" stroke="#FFFFFF" stroke-width="1.6" stroke-linecap="round" stroke-linejoin="round"/></g><text x="1224" y="38" font-size="12.5" font-weight="700" fill="#232F3E" text-anchor="start">Customer data center · 192.168.0.0/16</text><rect x="1225.75" y="315.75" width="56.5" height="56.5" rx="11" fill="#FFFFFF" stroke="#CFD6DD" stroke-width="1.5"/><g transform="translate(1254 344) scale(1.375) translate(-1254 -344)"><path d="M1241 333h26v22h-26z" fill="none" stroke="#7D8998" stroke-width="2" stroke-linecap="round" stroke-linejoin="round"/><path d="M1241 340.3h26M1241 347.6h26" fill="none" stroke="#7D8998" stroke-width="1.6" stroke-linecap="round" stroke-linejoin="round"/><path d="M1250 333v7.3M1259 333v7.3M1246 340.3v7.3M1254 340.3v7.3M1262 340.3v7.3M1250 347.6v7.4M1259 347.6v7.4" fill="none" stroke="#7D8998" stroke-width="1.6" stroke-linecap="round" stroke-linejoin="round"/></g><text x="1254" y="384" font-size="12" font-weight="700" fill="#232F3E" text-anchor="middle">IPsec gateway</text><text x="1254" y="399" font-size="10.5" font-weight="400" fill="#545B64" text-anchor="middle">strongSwan / firewall</text><rect x="1455.75" y="315.75" width="56.5" height="56.5" rx="11" fill="#FFFFFF" stroke="#CFD6DD" stroke-width="1.5"/><use href="#mcp" xlink:href="#mcp" x="1462" y="322" width="44" height="44"/><text x="1484" y="384" font-size="12" font-weight="700" fill="#232F3E" text-anchor="middle">onprem-mcp</text><text x="1484" y="399" font-size="10.5" font-weight="400" fill="#545B64" text-anchor="middle">API key · audit log</text><rect x="1455.75" y="455.75" width="56.5" height="56.5" rx="11" fill="#FFFFFF" stroke="#CFD6DD" stroke-width="1.5"/><g transform="translate(1484 484) scale(1.375) translate(-1484 -484)"><path d="M1473 475a11 4.5 0 0 1 22 0v18a11 4.5 0 0 1 -22 0z" fill="none" stroke="#7D8998" stroke-width="2" stroke-linecap="round" stroke-linejoin="round"/><path d="M1473 475a11 4.5 0 0 0 22 0" fill="none" stroke="#7D8998" stroke-width="2" stroke-linecap="round" stroke-linejoin="round"/><path d="M1473 484a11 4.5 0 0 0 22 0" fill="none" stroke="#7D8998" stroke-width="1.6" stroke-linecap="round" stroke-linejoin="round"/></g><text x="1484" y="524" font-size="12" font-weight="700" fill="#232F3E" text-anchor="middle">ERP · HR · Inventory</text><text x="1484" y="539" font-size="10.5" font-weight="400" fill="#545B64" text-anchor="middle">stays on-premises</text><rect x="1200" y="70" width="240" height="139" rx="4" fill="#FFFFFF" stroke="#7D8998" stroke-width="1"/><rect x="1200" y="70" width="240" height="24" rx="4" fill="#F2F3F3"/><rect x="1200" y="90" width="240" height="4" fill="#F2F3F3"/><text x="1210" y="86" font-size="11" font-weight="700" fill="#232F3E" text-anchor="start">DC routes + firewall (example)</text><text x="1210" y="112" font-size="10.5" fill="#232F3E" font-family="Menlo,Consolas,monospace">10.20.0.0/16</text><text x="1430" y="112" font-size="10.5" font-weight="600" fill="#545B64" text-anchor="end">→ IPsec tunnel</text><text x="1210" y="129" font-size="10.5" fill="#232F3E" font-family="Menlo,Consolas,monospace">172.30.0.0/16</text><text x="1430" y="129" font-size="10.5" font-weight="600" fill="#545B64" text-anchor="end">→ IPsec tunnel</text><text x="1210" y="146" font-size="10.5" fill="#232F3E" font-family="Menlo,Consolas,monospace">src 10.20.0.0/16</text><text x="1430" y="146" font-size="10.5" font-weight="600" fill="#545B64" text-anchor="end">allow tcp/8443</text><text x="1210" y="163" font-size="10.5" fill="#232F3E" font-family="Menlo,Consolas,monospace">src 172.30.0.0/16</text><text x="1430" y="163" font-size="10.5" font-weight="600" fill="#545B64" text-anchor="end">allow tcp/8443</text><text x="1210" y="180" font-size="10.5" fill="#232F3E" font-family="Menlo,Consolas,monospace">udp 500/4500, ESP</text><text x="1430" y="180" font-size="10.5" font-weight="600" fill="#545B64" text-anchor="end">VPN peer only</text><text x="1210" y="197" font-size="10.5" fill="#232F3E" font-family="Menlo,Consolas,monospace">everything else</text><text x="1430" y="197" font-size="10.5" font-weight="600" fill="#545B64" text-anchor="end">deny</text><polyline points="84,365 84,272 290,272 290,206" fill="none" stroke="#232F3E" stroke-width="1.6" stroke-linejoin="round"/><polyline points="104,206 314,206" fill="none" stroke="#232F3E" stroke-width="1.6"/><polyline points="104,206 104,176" fill="none" stroke="#232F3E" stroke-width="1.6" stroke-linejoin="round" marker-end="url(#a-ink)"/><polyline points="314,206 314,176" fill="none" stroke="#232F3E" stroke-width="1.6" stroke-linejoin="round" marker-end="url(#a-ink)"/><text x="300" y="254" font-size="10.5" font-weight="600" fill="#232F3E" text-anchor="start" style="paint-order:stroke;stroke:#FFFFFF;stroke-width:4px;stroke-linejoin:round">LLM · Memory</text><polyline points="113,394 180,394 180,348 234,348" fill="none" stroke="#232F3E" stroke-width="1.6" stroke-linejoin="round" marker-end="url(#a-ink)"/><text x="144" y="410" font-size="10.5" font-weight="600" fill="#232F3E" text-anchor="middle" style="paint-order:stroke;stroke:#FFFFFF;stroke-width:4px;stroke-linejoin:round">tools/call</text><polyline points="548,186 548,316" fill="none" stroke="#232F3E" stroke-width="1.6" stroke-linejoin="round" marker-end="url(#a-ink)"/><text x="560" y="254" font-size="10.5" font-weight="600" fill="#232F3E" text-anchor="start" style="paint-order:stroke;stroke:#FFFFFF;stroke-width:4px;stroke-linejoin:round">API key</text><polyline points="660,344 905,344" fill="none" stroke="#232F3E" stroke-width="1.6" stroke-linejoin="round" marker-end="url(#a-ink)"/><text x="840" y="336" font-size="10.5" font-weight="600" fill="#232F3E" text-anchor="middle" style="paint-order:stroke;stroke:#FFFFFF;stroke-width:4px;stroke-linejoin:round">private</text><polyline points="963,344 1225,344" fill="none" stroke="#DD344C" stroke-width="2" stroke-linejoin="round" stroke-dasharray="7 4" marker-end="url(#a-red)" marker-start="url(#a-red)"/><text x="1094" y="334" font-size="10.5" font-weight="600" fill="#DD344C" text-anchor="middle" style="paint-order:stroke;stroke:#FFFFFF;stroke-width:4px;stroke-linejoin:round">IPsec IKEv2 tunnel</text><text x="1094" y="366" font-size="10.5" font-weight="400" fill="#DD344C" text-anchor="middle" style="paint-order:stroke;stroke:#FFFFFF;stroke-width:4px;stroke-linejoin:round">over the Internet</text><polyline points="1283,344 1455,344" fill="none" stroke="#232F3E" stroke-width="1.6" stroke-linejoin="round" marker-end="url(#a-ink)"/><text x="1369" y="336" font-size="10.5" font-weight="600" fill="#232F3E" text-anchor="middle" style="paint-order:stroke;stroke:#FFFFFF;stroke-width:4px;stroke-linejoin:round">tcp/8443</text><polyline points="1484,410 1484,455" fill="none" stroke="#232F3E" stroke-width="1.6" stroke-linejoin="round" marker-end="url(#a-ink)"/><text x="1500" y="436" font-size="10.5" font-weight="600" fill="#232F3E" text-anchor="start" style="paint-order:stroke;stroke:#FFFFFF;stroke-width:4px;stroke-linejoin:round">SQL</text><circle cx="187" cy="272" r="10" fill="#232F3E" stroke="#FFFFFF" stroke-width="2"/><text x="187" y="276" font-size="11" font-weight="700" fill="#FFFFFF" text-anchor="middle">1</text><circle cx="180" cy="371" r="10" fill="#232F3E" stroke="#FFFFFF" stroke-width="2"/><text x="180" y="375" font-size="11" font-weight="700" fill="#FFFFFF" text-anchor="middle">2</text><circle cx="548" cy="270" r="10" fill="#232F3E" stroke="#FFFFFF" stroke-width="2"/><text x="548" y="274" font-size="11" font-weight="700" fill="#FFFFFF" text-anchor="middle">3</text><circle cx="800" cy="360" r="10" fill="#232F3E" stroke="#FFFFFF" stroke-width="2"/><text x="800" y="364" font-size="11" font-weight="700" fill="#FFFFFF" text-anchor="middle">4</text><circle cx="1094" cy="384" r="10" fill="#232F3E" stroke="#FFFFFF" stroke-width="2"/><text x="1094" y="388" font-size="11" font-weight="700" fill="#FFFFFF" text-anchor="middle">5</text><circle cx="1369" cy="360" r="10" fill="#232F3E" stroke="#FFFFFF" stroke-width="2"/><text x="1369" y="364" font-size="11" font-weight="700" fill="#FFFFFF" text-anchor="middle">6</text><circle cx="1484" cy="432" r="10" fill="#232F3E" stroke="#FFFFFF" stroke-width="2"/><text x="1484" y="436" font-size="11" font-weight="700" fill="#FFFFFF" text-anchor="middle">7</text><line x1="30" y1="576" x2="64" y2="576" stroke="#232F3E" stroke-width="1.6"/><text x="72" y="580" font-size="10.5" font-weight="400" fill="#545B64" text-anchor="start">request / data path</text><line x1="206" y1="576" x2="240" y2="576" stroke="#DD344C" stroke-width="2" stroke-dasharray="7 4"/><text x="248" y="580" font-size="10.5" font-weight="400" fill="#545B64" text-anchor="start">Site-to-Site VPN (IPsec)</text></svg>